<?xml version="1.0" encoding="UTF-8"?>
<svg width="13px" height="13px" viewBox="0 0 13 13" version="1.1" xmlns="http://www.w3.org/2000/svg" xmlns:xlink="http://www.w3.org/1999/xlink">
    <!-- Generator: Sketch 45 (43475) - http://www.bohemiancoding.com/sketch -->
    <title>Path</title>
    <desc>Created with Sketch.</desc>
    <defs></defs>
    <g id="Home" stroke="none" stroke-width="1" fill="none" fill-rule="evenodd">
        <g id="Menu---Mobile-Portrait" transform="translate(-273.000000, -36.000000)" fill="#E1E4E7">
            <g id="Close" transform="translate(267.000000, 30.000000)">
                <path d="M18.7011719,16.1783854 C18.7011719,16.4550781 18.5872396,16.7317708 18.3919271,16.9270833 L16.9270833,18.3919271 C16.7317708,18.5872396 16.4550781,18.7011719 16.1783854,18.7011719 C15.9016927,18.7011719 15.641276,18.5872396 15.4459635,18.3919271 L12.5,15.4459635 L9.55403646,18.3919271 C9.35872396,18.5872396 9.09830729,18.7011719 8.82161458,18.7011719 C8.54492188,18.7011719 8.26822917,18.5872396 8.07291667,18.3919271 L6.60807292,16.9270833 C6.41276042,16.7317708 6.29882813,16.4550781 6.29882813,16.1783854 C6.29882813,15.9016927 6.41276042,15.641276 6.60807292,15.4459635 L9.55403646,12.5 L6.60807292,9.55403646 C6.41276042,9.35872396 6.29882813,9.09830729 6.29882813,8.82161458 C6.29882813,8.54492188 6.41276042,8.26822917 6.60807292,8.07291667 L8.07291667,6.60807292 C8.26822917,6.41276042 8.54492188,6.29882812 8.82161458,6.29882812 C9.09830729,6.29882812 9.35872396,6.41276042 9.55403646,6.60807292 L12.5,9.55403646 L15.4459635,6.60807292 C15.641276,6.41276042 15.9016927,6.29882812 16.1783854,6.29882812 C16.4550781,6.29882812 16.7317708,6.41276042 16.9270833,6.60807292 L18.3919271,8.07291667 C18.5872396,8.26822917 18.7011719,8.54492188 18.7011719,8.82161458 C18.7011719,9.09830729 18.5872396,9.35872396 18.3919271,9.55403646 L15.4459635,12.5 L18.3919271,15.4459635 C18.5872396,15.641276 18.7011719,15.9016927 18.7011719,16.1783854 L18.7011719,16.1783854 Z" id="Path"></path>
            </g>
        </g>
    </g>
</svg>