<svg xmlns="http://www.w3.org/2000/svg" xmlns:xlink="http://www.w3.org/1999/xlink" width="13px" height="19px" viewBox="0 0 13 19">
  <g class="icon-map-marker" transform="translate(-12.000000, -8.000000)">
    <path d="M24.4052875,14.0829078 C24.4052875,14.8076293 24.3204857,15.5561121 24.0055077,16.2095494 L19.5958157,25.4051952 C19.3414104,25.9279451 18.7841416,26.2487235 18.2026438,26.2487235 C17.6211459,26.2487235 17.0638771,25.9279451 16.8215864,25.4051952 L12.3997798,16.2095494 C12.0848018,15.5561121 12,14.8076293 12,14.0829078 C12,10.7206756 14.7742293,8 18.2026438,8 C21.6310582,8 24.4052875,10.7206756 24.4052875,14.0829078 Z M21.2026438,14.0414539 C21.2026438,12.3662781 19.8094718,11 18.1013219,11 C16.3931719,11 15,12.3662781 15,14.0414539 C15,15.7166297 16.3931719,17.0829078 18.1013219,17.0829078 C19.8094718,17.0829078 21.2026438,15.7166297 21.2026438,14.0414539 Z"></path>
  </g>
</svg>