<svg xmlns="http://www.w3.org/2000/svg" xmlns:xlink="http://www.w3.org/1999/xlink" width="18px" height="19px" viewBox="0 0 18 19">
  <g class="icon-phone" transform="translate(-8.000000, -8.000000)">
    <path d="M18.2565624,18.7333333 C20.6590659,16.2133207 21.5340386,14.6111145 20.8815068,13.9266667 C20.8518462,13.8955554 20.792526,13.8333338 20.7035444,13.74 C20.2586364,13.273331 19.9546204,12.9000014 19.7914875,12.62 C19.6283545,12.3399986 19.5986944,11.9200028 19.7025063,11.36 C19.8063182,10.7999972 20.1696543,10.1155596 20.7925256,9.30666667 C21.089131,8.93333147 21.3634868,8.63000117 21.6156014,8.39666667 C21.8677159,8.16333217 22.1272417,8.03888897 22.3941866,8.02333333 C22.6611314,8.0077777 22.8835821,8 23.0615453,8 C23.2395085,8 23.4545442,8.1011101 23.7066588,8.30333333 C23.9587733,8.50555657 24.1367339,8.64555517 24.2405458,8.72333333 C24.3443576,8.8011115 24.5371482,8.995554 24.8189233,9.30666667 C25.1006984,9.61777933 25.2564139,9.78888873 25.2860745,9.82 C25.9979273,10.5666704 25.9534372,12.0755442 25.1526027,14.3466667 C24.3517682,16.6177891 22.8391035,18.9044329 20.6145633,21.2066667 C18.390023,23.5400117 16.2025912,25.1344402 14.0522023,25.99 C11.9018134,26.8455598 10.4707139,26.9000037 9.75886106,26.1533333 C9.72920053,26.1222221 9.558655,25.9511127 9.24721936,25.64 C8.93578373,25.3288873 8.75040815,25.1344448 8.69108708,25.0566667 C8.631766,24.9788885 8.49829559,24.7922237 8.29067183,24.4966667 C8.08304808,24.2011096 7.98665278,23.9600009 8.00148305,23.7733333 C8.01631331,23.5866657 8.03114336,23.3533347 8.04597363,23.0733333 C8.0608039,22.7933319 8.17202924,22.5211124 8.379653,22.2566667 C8.58727676,21.9922209 8.86904763,21.704446 9.22497407,21.3933333 C9.84784534,20.8644418 10.366897,20.4988899 10.7821445,20.2966667 C11.197392,20.0944434 11.5978032,20.078888 11.9833902,20.25 C12.3689772,20.421112 12.628503,20.5611106 12.7619754,20.67 C12.8954478,20.7788894 13.1846337,21.0666643 13.6295418,21.5333333 C14.2820736,22.2177812 15.8243984,21.2844572 18.2565624,18.7333333 L18.2565624,18.7333333 Z"></path>
  </g>
</svg>