<svg xmlns="http://www.w3.org/2000/svg" xmlns:xlink="http://www.w3.org/1999/xlink" width="67px" height="41px" viewBox="0 0 67 41">
<g class="image-visa-logo">
<rect id="Rectangle-1" fill="#0E4595" x="0" y="0" width="67" height="41" rx="3.55884687"></rect>
<polygon id="Shape" fill="#FFFFFF" points="24.85231 29.0941136 27.8325593 12.0532601 32.5992967 12.0532601 29.6169927 29.0941136 24.85231 29.0941136"></polygon>
<path d="M46.8381367,12.4207803 C45.8937047,12.0755446 44.4139873,11.7050648 42.5659487,11.7050648 C37.855938,11.7050648 34.538098,14.0162983 34.5098687,17.3287675 C34.4833367,19.7773641 36.8784527,21.1433344 38.6865593,21.9584597 C40.5419233,22.7936932 41.165738,23.3264321 41.156894,24.0722665 C41.145102,25.2145212 39.6752113,25.736379 38.305106,25.736379 C36.397214,25.736379 35.383638,25.4781051 33.81825,24.8418652 L33.203994,24.5709692 L32.5349767,28.3857972 C33.648338,28.8614321 35.707114,29.2736083 37.8447713,29.2949352 C42.8553887,29.2949352 46.108194,27.0101645 46.145178,23.4729352 C46.163134,21.5344448 44.8931713,20.0591412 42.143134,18.842982 C40.476978,18.0546677 39.4566127,17.5286316 39.467422,16.7303938 C39.467422,16.0220775 40.3310967,15.2646656 42.1971807,15.2646656 C43.755958,15.2410754 44.885042,15.5722962 45.7647967,15.9175318 L46.1919887,16.1141752 L46.8381367,12.4207803" id="path13" fill="#FFFFFF"></path>
<path d="M59.1042287,12.0532601 L55.420926,12.0532601 C54.2798713,12.0532601 53.4260233,12.3567123 52.9248633,13.4664108 L45.8456433,29.0832325 L50.8510793,29.0832325 C50.8510793,29.0832325 51.6695513,26.9834406 51.85465,26.5224299 C52.401638,26.5224299 57.2641407,26.529742 57.9593327,26.529742 C58.1019087,27.1262877 58.5392847,29.0832325 58.5392847,29.0832325 L62.9623567,29.0832325 L59.1042287,12.0532601 L59.1042287,12.0532601 L59.1042287,12.0532601 Z M53.26031,23.0568418 C53.654538,22.075018 55.1594473,18.2932686 55.1594473,18.2932686 C55.1313073,18.338621 55.5507273,17.3066571 55.7914807,16.6668482 L56.113706,18.1360584 C56.113706,18.1360584 57.0264247,22.2037633 57.2171513,23.0567548 L53.26031,23.0567548 L53.26031,23.0568418 L53.26031,23.0568418 L53.26031,23.0568418 Z" id="Path" fill="#FFFFFF"></path>
<path d="M20.8059567,12.0532601 L16.1391833,23.6738439 L15.641954,21.3122962 C14.7731873,18.589931 12.0663873,15.6405425 9.04031,14.1639331 L13.3074953,29.0669544 L18.3508087,29.0612962 L25.855166,12.0532601 L20.8059567,12.0532601" id="path16" fill="#FFFFFF"></path>
<path d="M11.7848087,12.0532601 L4.09847933,12.0532601 L4.03764333,12.40781 C10.0175273,13.8183493 13.9743687,17.2270945 15.6168513,21.3228291 L13.945514,13.4919161 C13.6569673,12.4128588 12.8200927,12.0908652 11.7848087,12.0532601" id="path18" fill="#F2AE14"></path>
</g>
</svg>