<svg xmlns="http://www.w3.org/2000/svg" xmlns:xlink="http://www.w3.org/1999/xlink" width="66px" height="41px" viewBox="0 0 66 41">
<g class="image-mastercard-logo">
<rect id="Rectangle-1" fill="#000000" x="0" y="0" width="66" height="41" rx="3.52610447"></rect>
<path d="M38.1927334,20.5 C38.1927334,29.1301664 31.1201,36.1256283 22.3959999,36.1256283 C13.6718998,36.1256283 6.59999976,29.1301664 6.59999976,20.5 C6.59999976,11.870559 13.6718998,4.87437182 22.3959999,4.87437182 C31.1201,4.87437182 38.1927334,11.870559 38.1927334,20.5" id="Fill-1" fill="#D9222A"></path>
<path d="M43.6032667,4.87437182 C39.5219,4.87437182 35.8028,6.40606857 32.9992666,8.91924089 C32.4283666,9.43137824 31.8952333,9.98450106 31.4042666,10.5728061 L34.5957333,10.5728061 C35.0320667,11.097638 35.4339333,11.6496726 35.7998667,12.227822 L30.2001333,12.227822 C29.8646333,12.7591826 29.5599333,13.3112172 29.2900666,13.8824753 L36.7095667,13.8824753 C36.9629333,14.418551 37.1866,14.9702229 37.3783667,15.5367657 L28.6212666,15.5367657 C28.4386666,16.0757431 28.2850333,16.6274151 28.1621999,17.191419 L37.8370667,17.191419 C38.0691667,18.2577672 38.1927334,19.3647382 38.1927334,20.5 C38.1927334,22.2351734 37.9063667,23.9046975 37.3783667,25.463597 L28.6212666,25.463597 C28.8126666,26.0305025 29.0363333,26.5825372 29.2896999,27.1182503 L36.7095667,27.1182503 C36.4389667,27.6895083 36.135,28.241543 35.7991333,28.7732662 L30.2001333,28.7732662 C30.5657,29.3503275 30.9683,29.9030875 31.4042666,30.4268313 L34.595,30.4268313 C34.1047667,31.0162245 33.5712666,31.5700727 32.9996333,32.0818473 C35.8031667,34.5946569 39.5219,36.1256283 43.6032667,36.1256283 C52.3273668,36.1256283 59.4000002,29.1301664 59.4000002,20.5 C59.4000002,11.8709218 52.3273668,4.87437182 43.6032667,4.87437182" id="Fill-2" fill="#EE9F2D"></path>
<path d="M57.2946002,29.2099612 C57.2946002,28.931405 57.5226669,28.705078 57.8046335,28.705078 C58.0866002,28.705078 58.3146669,28.931405 58.3146669,29.2099612 C58.3146669,29.4885175 58.0866002,29.7148444 57.8046335,29.7148444 C57.5226669,29.7148444 57.2946002,29.4885175 57.2946002,29.2099612 L57.2946002,29.2099612 L57.2946002,29.2099612 L57.2946002,29.2099612 Z M57.8046335,29.5937015 C58.0187669,29.5937015 58.1925669,29.42178 58.1925669,29.2099612 C58.1925669,28.9977797 58.0187669,28.8265836 57.8046335,28.8265836 C57.5901335,28.8265836 57.4170669,28.9977797 57.4170669,29.2099612 C57.4170669,29.42178 57.5901335,29.5937015 57.8046335,29.5937015 L57.8046335,29.5937015 L57.8046335,29.5937015 L57.8046335,29.5937015 Z M57.7357002,29.4319357 L57.6312002,29.4319357 L57.6312002,28.9883493 L57.8204002,28.9883493 C57.8600002,28.9883493 57.9003335,28.9883493 57.9351669,29.0104743 C57.9714669,29.0347754 57.9920002,29.0775744 57.9920002,29.1218243 C57.9920002,29.1715146 57.9623002,29.2179406 57.9142669,29.2360759 L57.9967669,29.4319357 L57.8809002,29.4319357 L57.8123335,29.2563872 L57.7357002,29.2563872 L57.7357002,29.4319357 L57.7357002,29.4319357 L57.7357002,29.4319357 Z M57.7357002,29.2185027 L57.7953467,29.2185027 C57.8176198,29.2185027 57.8410254,29.2209283 57.8610334,29.2068593 C57.8787764,29.1923051 57.8878366,29.1651373 57.8878366,29.1389397 C57.8878366,29.1161381 57.8768888,29.0899405 57.8617884,29.0787823 C57.8429129,29.063743 57.8130897,29.067139 57.7930816,29.067139 L57.7357002,29.067139 L57.7357002,29.2185027 L57.7357002,29.2185027 L57.7357002,29.2185027 Z" id="Fill-3" fill="#000000"></path>
<path d="M18.7076998,22.2108723 C18.5276665,22.1901982 18.4484665,22.1847576 18.3248998,22.1847576 C17.3528665,22.1847576 16.8607998,22.5144551 16.8607998,23.1655078 C16.8607998,23.5670206 17.1009665,23.8223638 17.4756998,23.8223638 C18.1741998,23.8223638 18.6776332,23.1644197 18.7076998,22.2108723 L18.7076998,22.2108723 L18.7076998,22.2108723 L18.7076998,22.2108723 Z M19.9547332,25.0831211 L18.5338998,25.0831211 L18.5665332,24.4150213 C18.1331332,24.9431176 17.5548998,25.1941084 16.7691332,25.1941084 C15.8396332,25.1941084 15.2023665,24.4759555 15.2023665,23.433183 C15.2023665,21.8641278 16.3107998,20.9486642 18.2134332,20.9486642 C18.4077665,20.9486642 18.6570998,20.966074 18.9122998,20.9983547 C18.9654665,20.7858104 18.9793998,20.6947718 18.9793998,20.5805202 C18.9793998,20.1532555 18.6805665,19.9940287 17.8793998,19.9940287 C17.0404665,19.9845984 16.3485665,20.1917021 16.0643998,20.2841915 C16.0823665,20.1771939 16.3019998,18.834103 16.3019998,18.834103 C17.1566998,18.5863765 17.7202665,18.4931618 18.3545998,18.4931618 C19.8271332,18.4931618 20.6070332,19.1471161 20.6055665,20.3832095 C20.6084999,20.7143577 20.5531332,21.1231246 20.4665999,21.6602884 C20.3177332,22.5942499 19.9983665,24.5952849 19.9547332,25.0831211 L19.9547332,25.0831211 L19.9547332,25.0831211 L19.9547332,25.0831211 Z" id="Fill-4" fill="#000000"></path>
<polyline id="Fill-5" fill="#000000" points="14.4847998 25.0831211 12.7698998 25.0831211 13.7521998 18.9900655 11.5587998 25.0831211 10.3902331 25.0831211 10.2457664 19.024885 9.21323313 25.0831211 7.60796644 25.0831211 8.94886643 17.1569621 11.4146998 17.1569621 11.5642998 21.593551 13.0683665 17.1569621 15.8110332 17.1569621 14.4847998 25.0831211"></polyline>
<path d="M45.7226001,22.2108723 C45.5433001,22.1901982 45.4637334,22.1847576 45.3405334,22.1847576 C44.3688667,22.1847576 43.8768001,22.5144551 43.8768001,23.1655078 C43.8768001,23.5670206 44.1166001,23.8223638 44.4913334,23.8223638 C45.1898334,23.8223638 45.6936334,23.1644197 45.7226001,22.2108723 L45.7226001,22.2108723 L45.7226001,22.2108723 L45.7226001,22.2108723 Z M46.9707334,25.0831211 L45.5499001,25.0831211 L45.5821668,24.4150213 C45.1487668,24.9431176 44.5701667,25.1941084 43.7851334,25.1941084 C42.8552667,25.1941084 42.2187334,24.4759555 42.2187334,23.433183 C42.2187334,21.8641278 43.3264334,20.9486642 45.2294334,20.9486642 C45.4237668,20.9486642 45.6727334,20.966074 45.9275668,20.9983547 C45.9807334,20.7858104 45.9946668,20.6947718 45.9946668,20.5805202 C45.9946668,20.1532555 45.6962001,19.9940287 44.8950334,19.9940287 C44.0561001,19.9845984 43.3649334,20.1917021 43.0796667,20.2841915 C43.0976334,20.1771939 43.3180001,18.834103 43.3180001,18.834103 C44.1727001,18.5863765 44.7359001,18.4931618 45.3695001,18.4931618 C46.8427668,18.4931618 47.6226668,19.1471161 47.6212001,20.3832095 C47.6241334,20.7143577 47.5687668,21.1231246 47.4822334,21.6602884 C47.3341001,22.5942499 47.0140001,24.5952849 46.9707334,25.0831211 L46.9707334,25.0831211 L46.9707334,25.0831211 L46.9707334,25.0831211 Z" id="Fill-6" fill="#000000"></path>
<path d="M27.5762666,24.9851912 C27.1069333,25.1313607 26.7409999,25.1941084 26.3442666,25.1941084 C25.4675666,25.1941084 24.9890666,24.6957538 24.9890666,23.778114 C24.9765999,23.4933918 25.1151999,22.7440464 25.2240999,22.0599877 C25.3230999,21.4578999 25.9676999,17.6614827 25.9676999,17.6614827 L27.6723333,17.6614827 L27.4732333,18.637155 L28.5028333,18.637155 L28.2703666,20.1862616 L27.2370999,20.1862616 C27.0390999,21.4121993 26.7571333,22.9391809 26.7538333,23.1415694 C26.7538333,23.4738058 26.9331333,23.6188871 27.3408666,23.6188871 C27.5362999,23.6188871 27.6877333,23.5993012 27.8032333,23.557953 L27.5762666,24.9851912" id="Fill-7" fill="#000000"></path>
<path d="M32.8027333,24.9329619 C32.2171666,25.1099611 31.6521333,25.1955592 31.0533666,25.1941084 C29.1452333,25.1922949 28.1504666,24.2064668 28.1504666,22.3185952 C28.1504666,20.1151716 29.4158333,18.4931618 31.1336666,18.4931618 C32.5391,18.4931618 33.4367,19.4013712 33.4367,20.8257077 C33.4367,21.2983104 33.3751,21.7596692 33.2266,22.4110846 L29.8319999,22.4110846 C29.7172333,23.3461342 30.3222333,23.7356777 31.3137,23.7356777 C31.9238333,23.7356777 32.4742,23.6112704 33.0861666,23.3298125 L32.8027333,24.9329619 L32.8027333,24.9329619 L32.8027333,24.9329619 Z M31.8446333,21.1115181 C31.8541666,20.9773178 32.0254,19.9610227 31.0515333,19.9610227 C30.5085,19.9610227 30.1201999,20.3705149 29.9621666,21.1115181 L31.8446333,21.1115181 L31.8446333,21.1115181 L31.8446333,21.1115181 Z" id="Fill-8" fill="#000000"></path>
<path d="M20.9832332,20.6748231 C20.9832332,21.4901806 21.3828999,22.0523709 22.2892999,22.4745577 C22.9837666,22.7973638 23.0911999,22.8931175 23.0911999,23.1858192 C23.0911999,23.5876947 22.7850332,23.7690464 22.1063332,23.7690464 C21.5948332,23.7690464 21.1188999,23.6899771 20.5699999,23.5147913 C20.5699999,23.5147913 20.3444999,24.9355008 20.3342332,25.0033263 C20.7239999,25.0874735 21.0715999,25.1654548 22.1187999,25.1941084 C23.9282999,25.1941084 24.7639332,24.5125885 24.7639332,23.0396498 C24.7639332,22.1539279 24.4141332,21.6341738 23.5550332,21.2435421 C22.8359999,20.917109 22.7534999,20.8442056 22.7534999,20.5431618 C22.7534999,20.1946037 23.0383999,20.016879 23.5927999,20.016879 C23.9293999,20.016879 24.3891999,20.052424 24.8247999,20.1137208 L25.0689999,18.6186571 C24.6249666,18.549018 23.9517666,18.4931618 23.5597999,18.4931618 C21.6413999,18.4931618 20.9773665,19.4844303 20.9832332,20.6748231" id="Fill-9" fill="#000000"></path>
<path d="M41.1429334,18.6625443 C41.6192334,18.6625443 42.0632667,18.7862261 42.6752334,19.090897 L42.9557334,17.3705945 C42.7045667,17.2730273 41.8201667,16.7003185 41.0710667,16.7003185 C39.9234,16.7003185 38.9532,17.263597 38.2708334,18.1932059 C37.2757,17.8671356 36.8665,18.5261677 36.3649,19.182661 L35.9194,19.2853061 C35.9531333,19.0691348 35.9835667,18.8544144 35.9733,18.637155 L34.3984667,18.637155 C34.1832333,20.6320241 33.8019,22.6526451 33.5034333,24.6500532 L33.4257,25.0831211 L35.1413333,25.0831211 C35.4277,23.2427637 35.5846333,22.0643401 35.6799667,21.2667552 L36.3260333,20.9113058 C36.4224667,20.5562191 36.7246,20.4361642 37.3307,20.4506724 C37.2515,20.8714084 37.2089667,21.3139067 37.2089667,21.7723638 C37.2089667,23.8811218 38.3592,25.1941084 40.2053667,25.1941084 C40.6809334,25.1941084 41.0890334,25.1320861 41.7208001,24.9627036 L42.0225667,23.1557148 C41.4542334,23.4324576 40.9878334,23.5626681 40.5654334,23.5626681 C39.5684667,23.5626681 38.9653,22.8347223 38.9653,21.6316349 C38.9653,19.8863057 39.8625334,18.6625443 41.1429334,18.6625443" id="Fill-10" fill="#000000"></path>
<polyline id="Fill-12" fill="#FFFFFF" points="14.9783331 24.612332 13.2630665 24.612332 14.2460998 18.5200018 12.0526998 24.612332 10.8837664 24.612332 10.7392998 18.5548213 9.70676643 24.612332 8.10149978 24.612332 9.44239982 16.6872611 11.9082331 16.6872611 11.9775331 21.593551 13.6410998 16.6872611 16.3045665 16.6872611 14.9783331 24.612332"></polyline>
<path d="M55.6618335,17.1569621 L55.2816002,19.4470719 C54.8126335,18.8366419 54.3088335,18.3948691 53.6437002,18.3948691 C52.7783668,18.3948691 51.9907668,19.0437456 51.4752335,19.9987438 C50.7573001,19.8514862 50.0148001,19.6015835 50.0148001,19.6015835 L50.0144335,19.6073868 C50.0723668,19.0734873 50.0954668,18.7477796 50.0903335,18.637155 L48.5151334,18.637155 C48.3006334,20.6320241 47.9193001,22.6526451 47.6212001,24.6500532 L47.5427334,25.0831211 L49.2580001,25.0831211 C49.4897335,23.5949487 49.6672001,22.359218 49.7977335,21.3791933 C50.3836668,20.8554495 50.6770001,20.3984431 51.2691668,20.4289102 C51.0070001,21.0560245 50.8533668,21.7785298 50.8533668,22.519533 C50.8533668,24.1310245 51.6776335,25.1941084 52.9243002,25.1941084 C53.5527668,25.1941084 54.0349335,24.9797506 54.5053668,24.4828469 L54.4250668,25.082033 L56.0472002,25.082033 L57.3532669,17.1569621 L55.6618335,17.1569621 L55.6618335,17.1569621 L55.6618335,17.1569621 Z M53.5172002,23.593498 C52.9334668,23.593498 52.6386668,23.1662332 52.6386668,22.3229477 C52.6386668,21.0560245 53.1905002,20.157608 53.9685668,20.157608 C54.5578002,20.157608 54.8768002,20.6019197 54.8768002,21.4205415 C54.8768002,22.6983457 54.3161668,23.593498 53.5172002,23.593498 L53.5172002,23.593498 L53.5172002,23.593498 L53.5172002,23.593498 Z" id="Fill-11" fill="#000000"></path>
<path d="M19.2008665,21.7411713 C19.0211998,21.7204972 18.9416332,21.7150567 18.8184332,21.7150567 C17.8463998,21.7150567 17.3546998,22.0447541 17.3546998,22.6958069 C17.3546998,23.0965942 17.5948665,23.3526628 17.9688665,23.3526628 C18.6680998,23.3526628 19.1715332,22.6947188 19.2008665,21.7411713 L19.2008665,21.7411713 L19.2008665,21.7411713 L19.2008665,21.7411713 Z M20.4486332,24.612332 L19.0277998,24.612332 L19.0600665,23.9453203 C18.6270332,24.4723284 18.0480665,24.7244074 17.2630332,24.7244074 C16.3331665,24.7244074 15.6962665,24.0062545 15.6962665,22.963482 C15.6962665,21.3937014 16.8043332,20.4789633 18.7073332,20.4789633 C18.9016665,20.4789633 19.1509998,20.496373 19.4058332,20.5286536 C19.4589999,20.3161093 19.4729332,20.2250708 19.4729332,20.1100938 C19.4729332,19.6828291 19.1744665,19.5243277 18.3732998,19.5243277 C17.5339998,19.5148974 16.8424665,19.7220011 16.5579332,19.8134023 C16.5758998,19.7067675 16.7955332,18.3651274 16.7955332,18.3651274 C17.6498665,18.1163128 18.2141665,18.0230981 18.8477665,18.0230981 C20.3206665,18.0230981 21.1009332,18.6774151 21.0994665,19.9124204 C21.1020332,20.2450195 21.0462999,20.6534236 20.9601332,21.1898621 C20.8116332,22.1234608 20.4918999,24.125584 20.4486332,24.612332 L20.4486332,24.612332 L20.4486332,24.612332 L20.4486332,24.612332 Z" id="Fill-13" fill="#FFFFFF"></path>
<path d="M43.4496334,16.9005308 L43.1687667,18.6211961 C42.5571667,18.3168879 42.1127667,18.1928433 41.6368334,18.1928433 C40.3564334,18.1928433 39.4588334,19.4166048 39.4588334,21.1619339 C39.4588334,22.3650213 40.0623667,23.0926044 41.0589667,23.0926044 C41.4813667,23.0926044 41.9474001,22.9627566 42.5157334,22.6856512 L42.2147001,24.4919144 C41.5825667,24.6623851 41.1748334,24.7244074 40.6989,24.7244074 C38.8531,24.7244074 37.7025,23.4114208 37.7025,21.3026628 C37.7025,18.4692233 39.2916334,16.4888623 41.5646001,16.4888623 C42.3133334,16.4888623 43.1981001,16.8029636 43.4496334,16.9005308" id="Fill-14" fill="#FFFFFF"></path>
<path d="M46.2165001,21.7411713 C46.0368334,21.7204972 45.9576334,21.7150567 45.8340668,21.7150567 C44.8624001,21.7150567 44.3703334,22.0447541 44.3703334,22.6958069 C44.3703334,23.0965942 44.6105001,23.3526628 44.9848668,23.3526628 C45.6833668,23.3526628 46.1871668,22.6947188 46.2165001,21.7411713 L46.2165001,21.7411713 L46.2165001,21.7411713 L46.2165001,21.7411713 Z M47.4642668,24.612332 L46.0430668,24.612332 L46.0757001,23.9453203 C45.6423001,24.4723284 45.0637001,24.7244074 44.2786667,24.7244074 C43.3491667,24.7244074 42.7119001,24.0062545 42.7119001,22.963482 C42.7119001,21.3937014 43.8203334,20.4789633 45.7226001,20.4789633 C45.9173001,20.4789633 46.1662668,20.496373 46.4214668,20.5286536 C46.4742668,20.3161093 46.4885668,20.2250708 46.4885668,20.1100938 C46.4885668,19.6828291 46.1901001,19.5243277 45.3889334,19.5243277 C44.5500001,19.5148974 43.8581001,19.7220011 43.5735667,19.8134023 C43.5915334,19.7067675 43.8115334,18.3651274 43.8115334,18.3651274 C44.6658667,18.1163128 45.2298001,18.0230981 45.8634001,18.0230981 C47.3366668,18.0230981 48.1165668,18.6774151 48.1147334,19.9124204 C48.1176668,20.2450195 48.0623001,20.6534236 47.9757668,21.1898621 C47.8276334,22.1234608 47.5071668,24.125584 47.4642668,24.612332 L47.4642668,24.612332 L47.4642668,24.612332 L47.4642668,24.612332 Z" id="Fill-15" fill="#FFFFFF"></path>
<path d="M28.0697999,24.5147647 C27.6000999,24.6609343 27.2341666,24.7244074 26.8377999,24.7244074 C25.9610999,24.7244074 25.4825999,24.2260528 25.4825999,23.308413 C25.4704999,23.0229654 25.6090999,22.2743454 25.7179999,21.5902867 C25.8166332,20.9874735 26.4612332,17.191419 26.4612332,17.191419 L28.1654999,17.191419 L27.9667666,18.167454 L28.8416333,18.167454 L28.6087999,19.7158351 L27.7309999,19.7158351 C27.5329999,20.9424983 27.2502999,22.4683918 27.2473666,22.671143 C27.2473666,23.0044675 27.4270333,23.1484608 27.8343999,23.1484608 C28.0298333,23.1484608 28.1808999,23.1296002 28.2967666,23.088252 L28.0697999,24.5147647" id="Fill-16" fill="#FFFFFF"></path>
<path d="M33.2962666,24.4632608 C32.7110666,24.6402602 32.1453,24.7254955 31.5469,24.7244074 C29.6387666,24.7225938 28.6439999,23.7367658 28.6439999,21.8488943 C28.6439999,19.6447452 29.9093666,18.0230981 31.6272,18.0230981 C33.0326333,18.0230981 33.9302333,18.9309448 33.9302333,20.3560068 C33.9302333,20.8289721 33.8686333,21.2903309 33.7205,21.9413836 L30.3259,21.9413836 C30.2111333,22.8764332 30.8161333,23.2663394 31.8076,23.2663394 C32.4173666,23.2663394 32.9681,23.1415694 33.5797,22.8593861 L33.2962666,24.4632608 L33.2962666,24.4632608 L33.2962666,24.4632608 Z M32.3378,20.640729 C32.3480666,20.5068914 32.5189333,19.4902335 31.5447,19.4902335 C31.0020333,19.4902335 30.6137333,19.9008139 30.4557,20.640729 L32.3378,20.640729 L32.3378,20.640729 L32.3378,20.640729 Z" id="Fill-17" fill="#FFFFFF"></path>
<path d="M21.4767665,20.2051221 C21.4767665,21.0204795 21.8764332,21.5819445 22.7828332,22.0048568 C23.4772999,22.3276628 23.5847332,22.4237793 23.5847332,22.7161182 C23.5847332,23.1179937 23.2781999,23.2993454 22.6002332,23.2993454 C22.0883665,23.2993454 21.6124332,23.2202761 21.0631665,23.0450903 C21.0631665,23.0450903 20.8383999,24.4657998 20.8281332,24.5336254 C21.2171665,24.6177726 21.5651332,24.6946657 22.6123332,24.7244074 C24.4221999,24.7244074 25.2574666,24.0428876 25.2574666,22.5703115 C25.2574666,21.6842269 24.9080332,21.1644728 24.0485666,20.7738412 C23.3298999,20.4466826 23.2466666,20.3748673 23.2466666,20.0734607 C23.2466666,19.7252654 23.5322999,19.5460899 24.0863332,19.5460899 C24.4225666,19.5460899 24.8823666,19.5827229 25.3186999,19.6440198 L25.5625332,18.1485934 C25.1188666,18.0789544 24.4456666,18.0230981 24.0536999,18.0230981 C22.1349332,18.0230981 21.4712665,19.0136412 21.4767665,20.2051221" id="Fill-18" fill="#FFFFFF"></path>
<path d="M56.5407335,24.612332 L54.9182335,24.612332 L54.9989002,24.0124205 C54.5284668,24.5100497 54.0463002,24.7244074 53.4178335,24.7244074 C52.1711668,24.7244074 51.3472668,23.6613235 51.3472668,22.0498319 C51.3472668,19.9058917 52.6251002,18.0985403 54.1376002,18.0985403 C54.8027335,18.0985403 55.3061668,18.3673036 55.7747668,18.9773709 L56.1553669,16.6872611 L57.8468002,16.6872611 L56.5407335,24.612332 L56.5407335,24.612332 L56.5407335,24.612332 Z M54.0111002,23.1230715 C54.8097002,23.1230715 55.3707002,22.2279194 55.3707002,20.9508404 C55.3707002,20.1322187 55.0513335,19.687907 54.4621002,19.687907 C53.6844002,19.687907 53.1318335,20.5859607 53.1318335,21.8532467 C53.1318335,22.6965323 53.4273668,23.1230715 54.0111002,23.1230715 L54.0111002,23.1230715 L54.0111002,23.1230715 L54.0111002,23.1230715 Z" id="Fill-19" fill="#FFFFFF"></path>
<path d="M49.0090335,18.167454 C48.7941668,20.1623231 48.4128334,22.1829441 48.1147334,24.179264 L48.0362668,24.612332 L49.7515335,24.612332 C50.3649668,20.6711961 50.5134668,19.9015393 51.4752335,19.9980185 C51.6285001,19.1913659 51.9137668,18.4848195 52.1264335,18.1282821 C51.4081335,17.980299 51.0070001,18.3818118 50.4819335,19.1445772 C50.5233668,18.8148797 50.5992668,18.4946125 50.5842335,18.167454 L49.0090335,18.167454" id="Fill-20" fill="#FFFFFF"></path>
<path d="M34.892,18.167454 C34.6767667,20.1623231 34.2954333,22.1829441 33.9973333,24.179264 L33.9192333,24.612332 L35.6352333,24.612332 C36.2479333,20.6711961 36.3960667,19.9015393 37.3574667,19.9980185 C37.5114667,19.1913659 37.7967334,18.4848195 38.0086667,18.1282821 C37.2911,17.980299 36.8896,18.3818118 36.3649,19.1445772 C36.4063333,18.8148797 36.4815,18.4946125 36.4672,18.167454 L34.892,18.167454" id="Fill-21" fill="#FFFFFF"></path>
</g>
</svg>