<svg xmlns="http://www.w3.org/2000/svg" xmlns:xlink="http://www.w3.org/1999/xlink" width="66px" height="41px" viewBox="0 0 66 41">
<g class="image-amex">
<rect id="Rectangle-1" fill="#2557D6" x="0" y="0" width="66" height="41" rx="3.52610447"></rect>
<path d="M0.000236544564,19.2539029 L3.17036271,19.2539029 L3.88516295,17.5555785 L5.48544445,17.5555785 L6.1983717,19.2539029 L12.4358406,19.2539029 L12.4358406,17.9554834 L12.9926034,19.2594375 L16.2306267,19.2594375 L16.7873895,17.9361107 L16.7873895,19.2539029 L32.2886969,19.2539029 L32.2814369,16.4661058 L32.5813576,16.4661058 C32.7913731,16.4732612 32.8527144,16.4923971 32.8527144,16.8339524 L32.8527144,19.2539029 L40.8700442,19.2539029 L40.8700442,18.6049234 C41.5167122,18.946248 42.5225363,19.2539029 43.8460757,19.2539029 L47.218959,19.2539029 L47.9407834,17.5555785 L49.5410643,17.5555785 L50.2469686,19.2539029 L56.7466627,19.2539029 L56.7466627,17.64068 L57.730948,19.2539029 L62.9394137,19.2539029 L62.9394137,8.5897951 L57.7847978,8.5897951 L57.7847978,9.84923936 L57.0629734,8.5897951 L51.7737326,8.5897951 L51.7737326,9.84923936 L51.1109095,8.5897951 L43.9664183,8.5897951 C42.7704798,8.5897951 41.7192345,8.75423121 40.8700442,9.21248325 L40.8700442,8.5897951 L35.9397245,8.5897951 L35.9397245,9.21248325 C35.3993517,8.74016325 34.6630117,8.5897951 33.844257,8.5897951 L15.8319005,8.5897951 L14.6233182,11.3441516 L13.3821926,8.5897951 L7.70874456,8.5897951 L7.70874456,9.84923936 L7.08548931,8.5897951 L2.24694958,8.5897951 L-2.63436299e-07,13.6600901 L-2.63436299e-07,19.2539029 L0.000228536564,19.2539029 L0.000236544564,19.2539029 L0.000236544564,19.2539029 Z M20.0111314,17.7156874 L18.1090554,17.7156874 L18.102033,11.7272744 L15.4116406,17.7156874 L13.78256,17.7156874 L11.0851435,11.7219696 L11.0851435,17.7156874 L7.31142958,17.7156874 L6.59850233,16.0102145 L2.73535011,16.0102145 L2.0151648,17.7156874 L4.13656382e-06,17.7156874 L3.32254921,10.0695408 L6.07920104,10.0695408 L9.23481064,17.3088647 L9.23481064,10.0695408 L12.2630543,10.0695408 L14.6912207,15.2565318 L16.9217814,10.0695408 L20.0108982,10.0695408 L20.0108982,17.7156874 L20.0111622,17.7156874 L20.0111314,17.7156874 L20.0111314,17.7156874 Z M5.96439483,14.4233708 L4.69447132,11.3751984 L3.43180587,14.4233708 L5.96439483,14.4233708 L5.96439483,14.4233708 L5.96439483,14.4233708 Z M27.5809134,17.7156874 L21.3827777,17.7156874 L21.3827777,10.0695408 L27.5809134,10.0695408 L27.5809134,11.6617762 L23.2382621,11.6617762 L23.2382621,13.0399934 L27.4767249,13.0399934 L27.4767249,14.6073216 L23.2382621,14.6073216 L23.2382621,16.1342913 L27.5809134,16.1342913 L27.5809134,17.7156874 L27.5809134,17.7156874 L27.5809134,17.7156874 Z M36.3154246,12.1287932 C36.3154246,13.3478782 35.4894118,13.9777148 35.0080394,14.1668275 C35.4140213,14.3190402 35.7607686,14.5879489 35.925831,14.8107329 C36.187822,15.1910345 36.23301,15.5307443 36.23301,16.2136258 L36.23301,17.7156874 L34.3616046,17.7156874 L34.3545822,16.751444 C34.3545822,16.2913456 34.3993012,15.6296823 34.0616848,15.2618356 C33.7905621,14.9929261 33.3773211,14.9345782 32.7093483,14.9345782 L30.7175994,14.9345782 L30.7175994,17.7156874 L28.86235,17.7156874 L28.86235,10.0695408 L33.1298458,10.0695408 C34.0780739,10.0695408 34.7767191,10.0942174 35.3765623,10.4357735 C35.9635267,10.7773296 36.3154255,11.275941 36.3154255,12.1287932 L36.3154246,12.1287932 L36.3154246,12.1287932 Z M33.9700038,13.2641807 C33.7150352,13.4166241 33.4134759,13.4216973 33.052213,13.4216973 L30.7982382,13.4216973 L30.7982382,11.7233737 L33.0828837,11.7233737 C33.4062177,11.7233737 33.7435991,11.7376732 33.9627455,11.8612878 C34.2034317,11.9726799 34.3523391,12.2097626 34.3523391,12.5372499 C34.3523391,12.871426 34.2106899,13.1403355 33.9700038,13.2641807 L33.9700038,13.2641807 L33.9700038,13.2641807 Z M39.291039,17.7156874 L37.3978607,17.7156874 L37.3978607,10.0695408 L39.291039,10.0695408 L39.291039,17.7156874 L39.291039,17.7156874 L39.291039,17.7156874 Z M61.2681133,17.7156874 L58.6388282,17.7156874 L55.1219548,11.9768112 L55.1219548,17.7156874 L51.3433246,17.7156874 L50.6212661,16.0102145 L46.7670113,16.0102145 L46.0664926,17.7156874 L43.8954006,17.7156874 C42.9935299,17.7156874 41.8516754,17.5191947 41.2050074,16.8699845 C40.5529546,16.2207752 40.2136997,15.3414018 40.2136997,13.9509621 C40.2136997,12.8169787 40.4164561,11.7803185 41.213905,10.9611376 C41.8137465,10.3509035 42.7530787,10.0695408 44.0316642,10.0695408 L45.8279131,10.0695408 L45.8279131,11.7079017 L44.0693598,11.7079017 C43.3922544,11.7079017 43.0099199,11.8070712 42.641632,12.1608498 C42.3253222,12.4828025 42.1082834,13.0914227 42.1082834,13.8928448 C42.1082834,14.7120248 42.273579,15.3026563 42.6184537,15.6884916 C42.904092,15.9910724 43.42316,16.0828611 43.9115556,16.0828611 L44.7448258,16.0828611 L47.3598286,10.0697715 L50.1398938,10.0697715 L53.2812218,17.301946 L53.2812218,10.0697715 L56.1062392,10.0697715 L59.3676776,15.3949063 L59.3676776,10.0697715 L61.2681133,10.0697715 L61.2681133,17.7156874 L61.2681133,17.7156874 L61.2681133,17.7156874 Z M49.9902049,14.4233708 L48.7062338,11.3751984 L47.4292861,14.4233708 L49.9902049,14.4233708 L49.9902049,14.4233708 L49.9902049,14.4233708 Z" id="Path" fill="#FFFFFF"></path>
<path d="M65.9961667,29.9245299 C65.5454668,30.57374 64.6672435,30.9028421 63.4783283,30.9028421 L59.8951962,30.9028421 L59.8951962,29.2628665 L63.4638127,29.2628665 C63.8178182,29.2628665 64.0655277,29.2169717 64.2146692,29.0735231 C64.3439095,28.9552124 64.4340488,28.7833963 64.4340488,28.574681 C64.4340488,28.3518978 64.3439095,28.1750076 64.207411,28.0689203 C64.0727859,27.9522235 63.8768187,27.8991795 63.5537188,27.8991795 C61.8115538,27.8408324 59.638121,27.9522235 59.638121,25.532044 C59.638121,24.4227364 60.3531553,23.2550807 62.3001843,23.2550807 L65.9959335,23.2550807 L65.9959335,21.7334167 L62.5621762,21.7334167 C61.5259146,21.7334167 60.7731854,21.9778794 60.2400709,22.3579485 L60.2400709,21.7334167 L55.1610787,21.7334167 C54.3488801,21.7334167 53.3955013,21.9317539 52.9445655,22.3579485 L52.9445655,21.7334167 L43.8748209,21.7334167 L43.8748209,22.3579485 C43.1529965,21.8450385 41.9350501,21.7334167 41.3729034,21.7334167 L35.3904021,21.7334167 L35.3904021,22.3579485 C34.8193578,21.8132126 33.5494342,21.7334167 32.7753994,21.7334167 L26.0799704,21.7334167 L24.5478218,23.3667035 L23.1128357,21.7334167 L13.1112511,21.7334167 L13.1112511,32.4049036 L22.9245949,32.4049036 L24.503336,30.745786 L25.9905334,32.4049036 L32.0395275,32.4102049 L32.0395275,29.8998498 L32.6342183,29.8998498 C33.4368179,29.9120723 34.3834075,29.8802472 35.2185495,29.5246232 L35.2185495,32.4046695 L40.2078706,32.4046695 L40.2078706,29.6233304 L40.4485558,29.6233304 C40.7557357,29.6233304 40.7859382,29.6357845 40.7859382,29.9381338 L40.7859382,32.4044388 L55.9426067,32.4044388 C56.9048823,32.4044388 57.9107065,32.1618215 58.4677025,31.7215581 L58.4677025,32.4044388 L63.275337,32.4044388 C64.2757773,32.4044388 65.2528034,32.266294 65.9961667,31.9125154 L65.9961667,29.9245264 L65.9961667,29.9245299 L65.9961667,29.9245299 Z M35.9438649,25.8197857 C35.9438649,27.9443047 34.3346863,28.3829542 32.7128648,28.3829542 L30.3977828,28.3829542 L30.3977828,30.9481971 L26.7914724,30.9481971 L24.506827,28.416394 L22.1325104,30.9481971 L14.7831552,30.9481971 L14.7831552,23.300206 L22.2455957,23.300206 L24.5283667,25.8071009 L26.8884018,23.300206 L32.8170533,23.300206 C34.2894992,23.300206 35.9438649,23.7017239 35.9438649,25.8197857 L35.9438649,25.8197857 L35.9438649,25.8197857 Z M21.1928473,29.3395086 L16.6310496,29.3395086 L16.6310496,27.8178437 L20.7044508,27.8178437 L20.7044508,26.2574341 L16.6310496,26.2574341 L16.6310496,24.8669944 L21.2827534,24.8669944 L23.3121962,27.095757 L21.1928473,29.3395086 L21.1928473,29.3395086 L21.1928473,29.3395086 Z M28.543196,30.2152312 L25.6945304,27.0999467 L28.543196,24.0836002 L28.543196,30.2152312 L28.543196,30.2152312 L28.543196,30.2152312 Z M32.7559936,26.8146241 L30.3582638,26.8146241 L30.3582638,24.8669944 L32.7775334,24.8669944 C33.4473814,24.8669944 33.9123638,25.1359039 33.9123638,25.8047175 C33.9123638,26.4661494 33.4689212,26.8146241 32.7559936,26.8146241 L32.7559936,26.8146241 L32.7559936,26.8146241 Z M45.3174066,23.300206 L51.5099235,23.300206 L51.5099235,24.8818328 L47.1651646,24.8818328 L47.1651646,26.2722725 L51.4038624,26.2722725 L51.4038624,27.832682 L47.1651646,27.832682 L47.1651646,29.3543469 L51.5099235,29.3612586 L51.5099235,30.948191 L45.3174066,30.948191 L45.3174066,23.3001999 L45.3174066,23.300206 L45.3174066,23.300206 Z M42.9367171,27.3940325 C43.3497231,27.54417 43.6873386,27.8133093 43.8456119,28.0360934 C44.1076029,28.4094754 44.1455326,28.7579493 44.1530241,29.4320676 L44.1530241,30.9481971 L42.2902832,30.9481971 L42.2902832,29.9913329 C42.2902832,29.5312363 42.3352362,28.8499695 41.9903616,28.4943454 C41.7192389,28.2203627 41.3059988,28.1548654 40.6291274,28.1548654 L38.6462762,28.1548654 L38.6462762,30.9481971 L36.7818959,30.9481971 L36.7818959,23.300206 L41.0655458,23.300206 C42.0048781,23.300206 42.6890077,23.3410267 43.2979809,23.6611339 C43.8835408,24.0096087 44.2518278,24.4870028 44.2518278,25.3594575 C44.2515638,26.5801564 43.4251127,27.2030752 42.9367171,27.3940325 L42.9367171,27.3940325 L42.9367171,27.3940325 Z M41.8879111,26.4271741 C41.6397335,26.5722375 41.3327878,26.5846916 40.971759,26.5846916 L38.717785,26.5846916 L38.717785,24.8669944 L41.0024296,24.8669944 C41.3327878,24.8669944 41.66338,24.8739061 41.8879111,25.0051392 C42.1283632,25.1289844 42.2721191,25.3658373 42.2721191,25.6930939 C42.2721191,26.0203514 42.1283632,26.2839562 41.8879111,26.4271741 L41.8879111,26.4271741 L41.8879111,26.4271741 Z M58.6375143,26.9143325 C58.998779,27.2826413 59.1924036,27.7475813 59.1924036,28.5347047 C59.1924036,30.1799851 58.1488846,30.9479665 56.2777142,30.9479665 L52.6639106,30.9479665 L52.6639106,29.3079917 L56.2631986,29.3079917 C56.6150966,29.3079917 56.8646795,29.2620969 57.0210784,29.1186474 C57.1486793,29.0003368 57.2402239,28.8285215 57.2402239,28.6198063 C57.2402239,28.3970213 57.141187,28.2201329 57.013821,28.1140447 C56.8719369,27.9973479 56.6762046,27.9443047 56.3531047,27.9443047 C54.6179638,27.8859568 52.4449992,27.9973479 52.4449992,25.5771675 C52.4449992,24.4678607 53.1525412,23.300206 55.0976967,23.300206 L58.8173274,23.300206 L58.8173274,24.9279582 L55.4137725,24.9279582 C55.0763919,24.9279582 54.8570106,24.9404123 54.6704083,25.066103 C54.4671838,25.1899482 54.3917933,25.3737562 54.3917933,25.6163735 C54.3917933,25.9048864 54.5643481,26.1011484 54.797776,26.1860184 C54.9935091,26.2531304 55.2037578,26.272733 55.5198336,26.272733 L56.5186354,26.299255 C57.525864,26.3234703 58.217251,26.4950557 58.6375143,26.9143325 L58.6375143,26.9143325 L58.6375143,26.9143325 Z M66,24.8669944 L62.6184548,24.8669944 C62.2808384,24.8669944 62.0565414,24.8794485 61.8675974,25.0051392 C61.6718652,25.1289844 61.5964756,25.3127933 61.5964756,25.5554114 C61.5964756,25.8439226 61.7617713,26.0401846 62.0022225,26.1250546 C62.1979556,26.1921667 62.4082052,26.2117701 62.7172568,26.2117701 L63.7228478,26.2382921 C64.7375687,26.2629696 65.4149082,26.4347848 65.8279142,26.8538309 C65.9030698,26.9121789 65.9482578,26.9776762 66,27.0431735 L66,24.8669944 L66,24.8669944 L66,24.8669944 Z" id="path13" fill="#FFFFFF"></path>
</g>
</svg>