<svg xmlns="http://www.w3.org/2000/svg" xmlns:xlink="http://www.w3.org/1999/xlink" width="64px" height="41px" viewBox="0 0 64 41">
<g class="image-discover-logo">
<path d="M4.51217953,0 C2.02064123,0 -3.88672952e-16,2.01557751 0,4.50131766 L0,36.498682 C0,38.9848917 2.01999368,41 4.51217953,41 L59.4878203,41 C61.9793592,41 64,38.984422 64,36.498682 L64,21.9776891 L64,4.50131766 C64,2.01510802 61.9800066,-3.87654722e-16 59.4878203,0 L4.51217953,0 L4.51217953,0 L4.51217953,0 Z" id="rectangle" fill="#4D4D4D"></path>
<path d="M34.0620193,13.1930708 C36.6006999,13.1930708 38.6586535,15.1227698 38.6586535,17.506581 L38.6586535,17.509298 C38.6586535,19.8931083 36.6006999,21.8255251 34.0620193,21.8255251 C31.5233387,21.8255251 29.465385,19.8931083 29.465385,17.509298 L29.465385,17.506581 C29.465385,15.1227698 31.5233387,13.1930708 34.0620193,13.1930708 L34.0620193,13.1930708 L34.0620193,13.1930708 Z M26.8432689,13.2486942 C27.56832,13.2486942 28.1764332,13.3947434 28.9165063,13.7470643 L28.9165063,15.6090012 C28.2154896,14.965482 27.6073707,14.6961742 26.8032049,14.6961742 C25.2225805,14.6961742 23.9794872,15.9249033 23.9794872,17.482765 C23.9794872,19.1255728 25.1841091,20.2811836 26.8815705,20.2811836 C27.6456788,20.2811836 28.2425288,20.0258272 28.9165063,19.3926522 L28.9165063,21.2555473 C28.1500619,21.5943898 27.5289239,21.7281841 26.8032049,21.7281841 C24.2368172,21.7281841 22.2426281,19.8790243 22.2426281,17.4942728 C22.2426281,15.1352253 24.2899003,13.2486942 26.8432689,13.2486942 L26.8432689,13.2486942 L26.8432689,13.2486942 Z M18.8749998,13.3000015 C19.8223401,13.3000015 20.6891914,13.6044743 21.4139422,14.1997215 L20.5320517,15.2838933 C20.093015,14.8218634 19.677815,14.6269652 19.1729165,14.6269652 C18.4464968,14.6269644 17.9174679,15.015277 17.9174679,15.5262057 C17.9174679,15.9644131 18.2144681,16.1963405 19.225801,16.5477211 C21.1429145,17.2059724 21.7110581,17.7896545 21.7110581,19.0785734 C21.7110581,20.6492866 20.4823024,21.7425692 18.7309292,21.7425692 C17.4484702,21.7425692 16.5161091,21.2683572 15.7395832,20.1982285 L16.8282051,19.2136352 C17.2164012,19.9182779 17.8638892,20.2957292 18.6677883,20.2957292 C19.4196455,20.2957292 19.9762823,19.8086099 19.9762823,19.1512989 C19.9762823,18.8105758 19.8076816,18.5184029 19.4709932,18.3118374 C19.301481,18.2140397 18.965719,18.0682262 18.3059298,17.8497494 C16.7230343,17.3146854 16.179968,16.7427584 16.179968,15.6249846 C16.179968,14.2971976 17.346217,13.3000015 18.8749998,13.3000015 L18.8749998,13.3000015 L18.8749998,13.3000015 Z M38.134295,13.4414572 L39.9753206,13.4414572 L42.2796472,18.8910847 L44.6136222,13.4414572 L46.4407048,13.4414572 L42.7078523,21.7630283 L41.8009616,21.7630283 L38.134295,13.4414572 L38.134295,13.4414572 L38.134295,13.4414572 Z M5.53141022,13.4539241 L8.00528845,13.4539241 C10.738551,13.4539241 12.6439106,15.1218631 12.6439106,17.516331 C12.6439106,18.7102731 12.0610166,19.8646669 11.0753206,20.6307466 C10.2458847,21.2774001 9.30083774,21.5673888 7.99230769,21.5673888 L5.53141022,21.5673888 L5.53141022,13.4539241 L5.53141022,13.4539241 L5.53141022,13.4539241 Z M13.4193912,13.4539241 L15.1048074,13.4539241 L15.1048074,21.5673888 L13.4193912,21.5673888 L13.4193912,13.4539241 L13.4193912,13.4539241 L13.4193912,13.4539241 Z M47.2027241,13.4539241 L51.9823721,13.4539241 L51.9823721,14.8286787 L48.8868587,14.8286787 L48.8868587,16.6295574 L51.8682691,16.6295574 L51.8682691,18.003672 L48.8868587,18.003672 L48.8868587,20.1937529 L51.9823721,20.1937529 L51.9823721,21.5673888 L47.2027241,21.5673888 L47.2027241,13.4539241 L47.2027241,13.4539241 L47.2027241,13.4539241 Z M53.0987175,13.4539241 L55.5975959,13.4539241 C57.5414146,13.4539241 58.6552886,14.3304018 58.6552886,15.8493954 C58.6552886,17.0916094 57.9566868,17.9068302 56.6871795,18.149443 L59.4070515,21.5673888 L57.334455,21.5673888 L55.0017625,18.3080009 L54.7820513,18.3080009 L54.7820513,21.5673888 L53.0987175,21.5673888 L53.0987175,13.4539241 L53.0987175,13.4539241 L53.0987175,13.4539241 Z M54.7820513,14.7318172 L54.7820513,17.1889857 L55.274519,17.1889857 C56.3507463,17.1889857 56.9211536,16.7501924 56.9211536,15.9345878 C56.9211536,15.1449998 56.3506437,14.7318172 55.3011216,14.7318172 L54.7820513,14.7318172 L54.7820513,14.7318172 L54.7820513,14.7318172 Z M7.21554486,14.8286787 L7.21554486,20.1937529 L7.66778847,20.1937529 C8.75686728,20.1937529 9.44466462,19.9978376 9.97419897,19.5489727 C10.5570773,19.0615531 10.9076923,18.2832798 10.9076923,17.5046628 C10.9076923,16.7272987 10.5570773,15.9722276 9.97419897,15.484808 C9.41752451,15.0118071 8.75686728,14.8286787 7.66778847,14.8286787 L7.21554486,14.8286787 L7.21554486,14.8286787 L7.21554486,14.8286787 Z" id="Shape" fill="#FFFFFF"></path>
<path d="M63.9985163,23.5984108 C61.8610902,25.0985403 45.8588642,35.8198079 18.1520416,40.9987004 L59.4863366,40.9987004 C61.9778754,40.9987004 63.9985163,38.9831224 63.9985163,36.4973824 L63.9985163,23.5984108 L63.9985163,23.5984108 L63.9985163,23.5984108 Z" id="Shape-9" fill="#F47216"></path>
</g>
</svg>