<svg xmlns="http://www.w3.org/2000/svg" xmlns:xlink="http://www.w3.org/1999/xlink" width="100px" height="54px">
  <defs></defs>
  <g id="bn-logo">
    <path id="bn-logo-logo-b-top" fill="#F05A22" d="M30.1276943,12.5190086 C30.1276943,5.60442488 24.507228,5.16746412e-05 17.5740674,5.16746412e-05 L-2.59067358e-05,5.16746412e-05 L-2.59067358e-05,25.038999 L17.5740674,25.038999 C24.507228,25.038999 30.1276943,19.4335923 30.1276943,12.5190086"></path>
    <path id="bn-logo-logo-b-bottom" fill="#58585B" style="mix-blend-mode: multiply;" d="M30.1276943,27.9810172 C30.1276943,21.0664335 24.507228,15.4620603 17.5740674,15.4620603 L17.5740674,15.4610268 L-2.59067358e-05,15.4610268 L-2.59067358e-05,40.5007493 L17.5740674,40.5007493 C24.507228,40.5007493 30.1276943,34.895601 30.1276943,27.9810172"></path>
    <polygon id="bn-logo-logo-n-leg-left" fill="#F05A22" points="34.611658 40.5007751 44.7639896 40.5007751 44.7639896 0.000258373206 34.611658 0.000258373206"></polygon>
    <polygon id="bn-logo-logo-n-leg-right" fill="#F05A22" points="54.9163212 40.5007751 65.0704663 40.5007751 65.0704663 0.000258373206 54.9163212 0.000258373206"></polygon>
    <polygon id="bn-logo-logo-n-slash" fill="#58585B" style="mix-blend-mode: multiply;" points="65.0704145 40.5006459 54.9162694 40.5006459 34.6118653 0.000129186603 44.7639378 0.000129186603"></polygon>
    <polygon id="bn-logo-logo-t-top" fill="#F05A22" points="69.4279793 10.1259043 99.8865285 10.1259043 99.8865285 0 69.4279793 0"></polygon>
    <polygon id="bn-logo-logo-t-leg" fill="#58585B" style="mix-blend-mode: multiply;" points="79.5821244 40.5005167 89.734456 40.5005167 89.734456 0 79.5821244 0"></polygon>
    <path id="bn-logo-text-big-b-1" fill="#595A5C" d="M2.69717617,52.8639589 C4.03370466,52.8639589 4.41712435,52.2337866 4.41712435,51.5206766 C4.41712435,50.9005809 4.03370466,50.166801 2.69717617,50.166801 L1.18448187,50.166801 L1.18448187,52.8639589 L2.69717617,52.8639589 Z M2.42774611,49.2989254 C3.23603627,49.2989254 3.86816062,48.8338536 3.86816062,48.0693273 C3.86816062,47.6665234 3.7230829,47.3358057 3.47411917,47.1084373 C3.21531088,46.870734 2.8111658,46.7467148 2.23085492,46.7467148 L1.18448187,46.7467148 L1.18448187,49.2989254 L2.42774611,49.2989254 Z M0.18992228,45.8788392 L2.24121762,45.8788392 C3.01841969,45.8788392 3.54665803,46.0026 4.01297927,46.3335761 C4.50002591,46.6847053 4.86272021,47.2528679 4.86272021,48.0486574 C4.86272021,48.7821789 4.46893782,49.3092603 3.87852332,49.5986383 L3.87852332,49.6193081 C4.85235751,49.7639971 5.41194301,50.5595282 5.41194301,51.5103416 C5.41194301,52.7916144 4.36531088,53.7318344 3.03914508,53.7318344 L0.18992228,53.7318344 L0.18992228,45.8788392 Z"></path>
    <polygon id="bn-logo-text-big-i-1" fill="#595A5C" points="6.67668394 53.732067 7.67124352 53.732067 7.67124352 45.8788134 6.67668394 45.8788134"></polygon>
    <path id="bn-logo-text-big-g-1" fill="#595A5C" d="M13.3599223,49.4024038 L17.328057,49.4024038 C17.328057,52.2233225 15.3803886,53.8557244 13.1733938,53.8557244 C10.5003368,53.8557244 8.99800518,51.7479158 8.99800518,49.805466 C8.99800518,47.8627579 10.5003368,45.7546909 13.1733938,45.7546909 C14.0956736,45.7546909 15.0176943,46.023399 15.9500777,46.8189301 L15.3182124,47.563045 C14.6860881,46.9742124 13.8676943,46.6848344 13.1733938,46.6848344 C11.5259845,46.6848344 10.0547409,47.997112 10.0547409,49.805466 C10.0547409,51.63449 11.5674352,52.9260976 13.1733938,52.9260976 C14.5928238,52.9260976 15.9086269,51.9752842 16.2402332,50.332289 L13.3599223,50.332289 L13.3599223,49.4024038 Z"></path>
    <polygon id="bn-logo-text-noise-n-1" fill="#595A5C" points="26.1834197 45.8787876 27.1779793 45.8787876 27.1779793 53.7320411 26.2455959 53.7320411 22.0183938 47.6561368 21.9976684 47.6561368 21.9976684 53.7320411 21.0028497 53.7320411 21.0028497 45.8787876 21.9354922 45.8787876 26.1626943 51.9546919 26.1834197 51.9546919"></polygon>
    <path id="bn-logo-text-noise-o-1" fill="#595A5C" d="M32.6188601,52.9260201 C34.2248187,52.9260201 35.737513,51.6651589 35.737513,49.8053885 C35.737513,47.9453598 34.2248187,46.6847569 32.6188601,46.6847569 C31.0129016,46.6847569 29.5002073,47.9453598 29.5002073,49.8053885 C29.5002073,51.6651589 31.0129016,52.9260201 32.6188601,52.9260201 M32.6188601,45.7546134 C35.2919171,45.7546134 36.7942487,47.8626804 36.7942487,49.8053885 C36.7942487,51.7478383 35.2919171,53.8559053 32.6188601,53.8559053 C29.9458031,53.8559053 28.4432124,51.7478383 28.4432124,49.8053885 C28.4432124,47.8626804 29.9458031,45.7546134 32.6188601,45.7546134"></path>
    <polygon id="bn-logo-text-noise-i-1" fill="#595A5C" points="38.0598446 53.732067 39.0544041 53.732067 39.0544041 45.8788134 38.0598446 45.8788134"></polygon>
    <path id="bn-logo-text-noise-s-1" fill="#595A5C" d="M44.2766321,48.1208986 C44.1419171,47.1910134 43.6033161,46.6225923 42.7639378,46.6225923 C41.6450259,46.6225923 41.3445078,47.3563722 41.3445078,47.8935301 C41.3445078,48.4826211 41.7175648,48.8546785 42.4947668,49.1440565 L43.4893264,49.5158555 C44.7429534,49.9809273 45.3232642,50.7147072 45.3232642,51.6652622 C45.3232642,52.9364584 44.3077202,53.8557502 42.7950259,53.8557502 C41.3652332,53.8557502 40.3499482,53.1015589 40.2255959,51.5309081 L41.2201554,51.5309081 C41.303057,52.3887072 41.7382902,52.9878746 42.8468394,52.9878746 C43.706943,52.9878746 44.3284456,52.4403818 44.3284456,51.7479416 C44.3284456,51.1384392 43.8209326,50.745712 43.1059067,50.4666689 L42.1009845,50.0742 C40.9302591,49.6194632 40.3499482,48.9373579 40.3499482,47.9245349 C40.3499482,46.5709177 41.4792228,45.7547167 42.7743005,45.7547167 C44.0797409,45.7547167 45.095285,46.5298364 45.2092746,48.1208986 L44.2766321,48.1208986 Z"></path>
    <polygon id="bn-logo-text-noise-e-1" fill="#595A5C" points="46.5362694 45.8787876 50.6080311 45.8787876 50.6080311 46.8086727 47.530829 46.8086727 47.530829 49.2988737 50.6080311 49.2988737 50.6080311 50.2290172 47.530829 50.2290172 47.530829 52.8018976 50.6080311 52.8018976 50.6080311 53.7320411 46.5362694 53.7320411"></polygon>
    <polygon id="bn-logo-text-theatre-t-1" fill="#595A5C" points="56.6239896 46.8085952 54.6553368 46.8085952 54.6553368 45.87871 59.5872021 45.87871 59.5872021 46.8085952 57.6188083 46.8085952 57.6188083 53.7319636 56.6239896 53.7319636"></polygon>
    <polygon id="bn-logo-text-theatre-h-1" fill="#595A5C" points="65.7009585 45.8787876 66.6957772 45.8787876 66.6957772 53.7320411 65.7009585 53.7320411 65.7009585 50.1773426 61.5877461 50.1773426 61.5877461 53.7320411 60.5929275 53.7320411 60.5929275 45.8787876 61.5877461 45.8787876 61.5877461 49.247199 65.7009585 49.247199"></polygon>
    <polygon id="bn-logo-text-theatre-e-1" fill="#595A5C" points="68.2718912 45.8787876 72.3439119 45.8787876 72.3439119 46.8086727 69.2667098 46.8086727 69.2667098 49.2988737 72.3439119 49.2988737 72.3439119 50.2290172 69.2667098 50.2290172 69.2667098 52.8018976 72.3439119 52.8018976 72.3439119 53.7320411 68.2718912 53.7320411"></polygon>
    <path id="bn-logo-text-theatre-a-1" fill="#595A5C" d="M76.696399,47.180756 L75.204171,51.0349091 L78.1883679,51.0349091 L76.696399,47.180756 Z M78.5300777,51.9027847 L74.8624611,51.9027847 L74.1474352,53.7318086 L73.0596114,53.7318086 L76.2611658,45.8788134 L77.1316321,45.8788134 L80.3329275,53.7318086 L79.2451036,53.7318086 L78.5300777,51.9027847 Z"></path>
    <polygon id="bn-logo-text-theatre-t-2" fill="#595A5C" points="81.763886 46.8085952 79.7952332 46.8085952 79.7952332 45.87871 84.7273575 45.87871 84.7273575 46.8085952 82.7587047 46.8085952 82.7587047 53.7319636 81.763886 53.7319636"></polygon>
    <path id="bn-logo-text-theatre-r-1" fill="#595A5C" d="M86.7274093,49.7743321 C86.8621244,49.784667 87.0072021,49.784667 87.5976166,49.784667 C89.1206736,49.784667 89.649171,49.1232316 89.649171,48.2656909 C89.649171,47.3461407 89.0173057,46.7467148 87.9810363,46.7467148 L86.7274093,46.7467148 L86.7274093,49.7743321 Z M86.7274093,50.3838344 L86.7274093,53.7318344 L85.7325907,53.7318344 L85.7325907,45.8788392 L88.0017617,45.8788392 C89.514456,45.8788392 90.6437306,46.7467148 90.6437306,48.255356 C90.6437306,49.6606478 89.5351813,50.5287818 88.2504663,50.6008679 L91.3173057,53.7318344 L89.918601,53.7318344 L86.7274093,50.3838344 Z"></path>
    <polygon id="bn-logo-text-theatre-e-2" fill="#595A5C" points="92.2611917 45.8787876 96.3332124 45.8787876 96.3332124 46.8086727 93.2560104 46.8086727 93.2560104 49.2988737 96.3332124 49.2988737 96.3332124 50.2290172 93.2560104 50.2290172 93.2560104 52.8018976 96.3332124 52.8018976 96.3332124 53.7320411 92.2611917 53.7320411"></polygon>
  </g>
</svg>