<?xml version="1.0" encoding="UTF-8"?>
<svg width="102px" height="75px" viewBox="0 0 102 75" version="1.1" xmlns="http://www.w3.org/2000/svg" xmlns:xlink="http://www.w3.org/1999/xlink">
    <!-- Generator: Sketch 45 (43475) - http://www.bohemiancoding.com/sketch -->
    <title>Logo</title>
    <desc>Created with Sketch.</desc>
    <defs></defs>
    <g id="Symbols" stroke="none" stroke-width="1" fill="none" fill-rule="evenodd">
        <g id="BNT-Logo-Normal-Orange">
            <g id="Logo">
                <polygon id="Fill-28" fill="#58585B" points="93.676002 66.652761 97.9490735 66.652761 97.9490735 67.6343735 94.7199408 67.6343735 94.7199408 70.2626798 97.9490735 70.2626798 97.9490735 71.2444664 94.7199408 71.2444664 94.7199408 73.9599536 97.9490735 73.9599536 97.9490735 74.9415661 93.676002 74.9415661"></polygon>
                <path d="M79.0088704,70.7645186 C79.149901,70.7753074 79.3022071,70.7753074 79.9221867,70.7753074 C81.5203602,70.7753074 82.0744214,70.0775116 82.0744214,69.1722912 C82.0744214,68.2014675 81.4115949,67.5687529 80.3244622,67.5687529 L79.0088704,67.5687529 L79.0088704,70.7645186 Z M79.0088704,71.408022 L79.0088704,74.9415487 L77.9647582,74.9415487 L77.9647582,66.6527436 L80.3459724,66.6527436 C81.9332173,66.6527436 83.1183602,67.5687529 83.1183602,69.1615023 C83.1183602,70.644449 81.9550745,71.5608063 80.6068704,71.6373724 L83.825248,74.9415487 L82.3575235,74.9415487 L79.0088704,71.408022 Z" id="Fill-27" fill="#58585B"></path>
                <polygon id="Fill-26" fill="#58585B" points="64.9392194 67.6343039 62.8737194 67.6343039 62.8737194 66.6526914 68.0490051 66.6526914 68.0490051 67.6343039 65.9833316 67.6343039 65.9833316 74.9414965 64.9392194 74.9414965"></polygon>
                <path d="M50.7613061,68.0270186 L49.1957449,72.095116 L52.3265204,72.095116 L50.7613061,68.0270186 Z M52.685602,73.0111253 L48.8368367,73.0111253 L48.0869286,74.9414617 L46.9451531,74.9414617 L50.3045612,66.6528306 L51.218051,66.6528306 L54.5774592,74.9414617 L53.4358571,74.9414617 L52.685602,73.0111253 Z" id="Fill-25" fill="#58585B"></path>
                <polygon id="Fill-24" fill="#58585B" points="33.0603163 66.652761 37.3332143 66.652761 37.3332143 67.6343735 34.1042551 67.6343735 34.1042551 70.2626798 37.3332143 70.2626798 37.3332143 71.2444664 34.1042551 71.2444664 34.1042551 73.9599536 37.3332143 73.9599536 37.3332143 74.9415661 33.0603163 74.9415661"></polygon>
                <polygon id="Fill-23" fill="#58585B" points="21.5024153 66.652761 22.5460071 66.652761 22.5460071 74.9415661 21.5024153 74.9415661 21.5024153 71.189652 17.18615 71.189652 17.18615 74.9415661 16.1425582 74.9415661 16.1425582 66.652761 17.18615 66.652761 17.18615 70.2083875 21.5024153 70.2083875"></polygon>
                <polygon id="Fill-22" fill="#58585B" points="3.11686327 67.6343039 1.0511898 67.6343039 1.0511898 66.6526914 6.22612857 66.6526914 6.22612857 67.6343039 4.16062857 67.6343039 4.16062857 74.9414965 3.11686327 74.9414965"></polygon>
                <polygon id="Fill-21" fill="#231F20" points="90.5423816 47.7666473 98.3261265 47.7666473 98.3261265 49.5542923 92.4441265 49.5542923 92.4441265 54.3426334 98.3261265 54.3426334 98.3261265 56.1308005 92.4441265 56.1308005 92.4441265 61.0778422 98.3261265 61.0778422 98.3261265 62.8660093 90.5423816 62.8660093"></polygon>
                <path d="M86.2259776,52.0777378 C85.968549,50.2897448 84.9384878,49.1969374 83.3342429,49.1969374 C81.1953653,49.1969374 80.6210082,50.6078422 80.6210082,51.6406148 C80.6210082,52.7729234 81.3341408,53.4881206 82.8192122,54.0446172 L84.7209571,54.7596404 C87.1176102,55.6538979 88.2264265,57.0644548 88.2264265,58.892297 C88.2264265,61.3359745 86.285651,63.1041299 83.3935694,63.1041299 C80.6607327,63.1041299 78.7199571,61.6542459 78.4821306,58.6340603 L80.383702,58.6340603 C80.5419061,60.2828422 81.3738653,61.4353364 83.4929673,61.4353364 C85.1367633,61.4353364 86.325202,60.3825522 86.325202,59.0513457 C86.325202,57.8788399 85.3546408,57.1241415 83.988049,56.5874826 L82.067049,55.8326102 C79.8291204,54.9588863 78.7199571,53.6473434 78.7199571,51.7001276 C78.7199571,49.0974014 80.8786102,47.5281439 83.3545388,47.5281439 C85.8497224,47.5281439 87.7908449,49.018051 88.008549,52.0777378 L86.2259776,52.0777378 Z" id="Fill-20" fill="#231F20"></path>
                <polygon id="Fill-19" fill="#231F20" points="74.343602 62.8660093 76.2446531 62.8660093 76.2446531 47.7666473 74.343602 47.7666473"></polygon>
                <path d="M63.9466796,61.3164501 C67.0165673,61.3164501 69.9084755,58.8922622 69.9084755,55.3161021 C69.9084755,51.739942 67.0165673,49.3162761 63.9466796,49.3162761 C60.8771388,49.3162761 57.985751,51.739942 57.985751,55.3161021 C57.985751,58.8922622 60.8771388,61.3164501 63.9466796,61.3164501 M63.9466796,47.5282831 C69.0565673,47.5282831 71.9287,51.5812413 71.9287,55.3161021 C71.9287,59.0513109 69.0565673,63.1040951 63.9466796,63.1040951 C58.8371388,63.1040951 55.9650061,59.0513109 55.9650061,55.3161021 C55.9650061,51.5812413 58.8371388,47.5282831 63.9466796,47.5282831" id="Fill-18" fill="#231F20"></path>
                <polygon id="Fill-17" fill="#231F20" points="51.6488102 47.7666473 53.5503816 47.7666473 53.5503816 62.8660093 51.7679837 62.8660093 43.6870857 51.1841067 43.6477082 51.1841067 43.6477082 62.8660093 41.7463102 62.8660093 41.7463102 47.7666473 43.5287082 47.7666473 51.6092592 59.4487239 51.6488102 59.4487239"></polygon>
                <path d="M26.6765041,54.5411137 L34.2619735,54.5411137 C34.2619735,59.9654756 30.5384531,63.1041647 26.3196776,63.1041647 C21.2097898,63.1041647 18.3381776,59.0513805 18.3381776,55.3159977 C18.3381776,51.5811369 21.2097898,47.5281787 26.3196776,47.5281787 C28.0824735,47.5281787 29.8450959,48.044652 31.6276673,49.5742343 L30.4196265,51.0049768 C29.2114122,49.8726682 27.6467184,49.3163457 26.3196776,49.3163457 C23.1705143,49.3163457 20.3582286,51.8391995 20.3582286,55.3159977 C20.3582286,58.832819 23.2497898,61.3165197 26.3196776,61.3165197 C29.0332592,61.3165197 31.5485653,59.4883295 32.182249,56.3291067 L26.6765041,56.3291067 L26.6765041,54.5411137 Z" id="Fill-16" fill="#231F20"></path>
                <polygon id="Fill-14" fill="#231F20" points="13.9021837 62.8660093 15.8035816 62.8660093 15.8035816 47.7666473 13.9021837 47.7666473"></polygon>
                <path d="M6.29792755,61.1971462 C8.85295816,61.1971462 9.58569286,59.9849652 9.58569286,58.6140835 C9.58569286,57.4222622 8.85295816,56.0117053 6.29792755,56.0117053 L3.40671327,56.0117053 L3.40671327,61.1971462 L6.29792755,61.1971462 Z M5.78289694,54.3425638 C7.32781531,54.3425638 8.53602959,53.4488283 8.53602959,51.9784107 C8.53602959,51.2035267 8.25865204,50.5680278 7.78334592,50.1305568 C7.28826429,49.6737703 6.5158051,49.4351972 5.40646837,49.4351972 L3.40671327,49.4351972 L3.40671327,54.3425638 L5.78289694,54.3425638 Z M1.50514184,47.7665777 L5.42659082,47.7665777 C6.91183571,47.7665777 7.92212143,48.0046288 8.81323367,48.6408237 C9.74407041,49.3163457 10.4374276,50.4089791 10.4374276,51.9385615 C10.4374276,53.3489443 9.68457041,54.3625754 8.5558051,54.9187239 L8.5558051,54.9587471 C10.4174786,55.2364733 11.4872643,56.7664037 11.4872643,58.5940719 C11.4872643,61.057935 9.48664184,62.8659397 6.95173367,62.8659397 L1.50514184,62.8659397 L1.50514184,47.7665777 Z" id="Fill-12" fill="#231F20"></path>
                <polygon id="Fill-1" fill="#F05A28" points="70.8098571 10.5614269 101.872673 10.5614269 101.872673 0.174013921 70.8098571 0.174013921"></polygon>
                <polygon id="Fill-3" fill="#58585B" style="mix-blend-mode: multiply;" points="81.163898 41.7210557 91.5179388 41.7210557 91.5179388 0.174013921 81.163898 0.174013921"></polygon>
                <polygon id="Fill-5" fill="#F05A28" points="35.3006735 41.7212297 45.6548878 41.7212297 45.6548878 0.174013921 35.3006735 0.174013921"></polygon>
                <polygon id="Fill-7" fill="#F05A28" points="56.009102 41.7212297 66.3638367 41.7212297 66.3638367 0.174013921 56.009102 0.174013921"></polygon>
                <polygon id="Fill-9" fill="#58585B" style="mix-blend-mode: multiply;" points="66.3639061 41.7211949 56.0091714 41.7211949 35.3005694 0.173979118 45.6547837 0.173979118"></polygon>
                <path d="M30.7266153,13.0175638 C30.7266153,5.92423434 24.9950133,0.174640371 17.9238806,0.174640371 L17.9238806,0.173944316 L-1.73469388e-05,0.173944316 L-1.73469388e-05,25.8606613 L17.9238806,25.8606613 C24.9950133,25.8606613 30.7266153,20.1103712 30.7266153,13.0175638" id="Fill-29" fill="#F05A28"></path>
                <path d="M30.7266153,28.8778016 C30.7266153,21.7848202 24.9950133,16.0347042 17.9238806,16.0347042 L17.9238806,16.0343561 L-1.73469388e-05,16.0343561 L-1.73469388e-05,41.7212471 L17.9238806,41.7212471 C24.9950133,41.7212471 30.7266153,35.9713051 30.7266153,28.8778016" id="Fill-30" fill="#58585B" style="mix-blend-mode: multiply;"></path>
            </g>
        </g>
    </g>
</svg>