<?xml version="1.0" standalone="no"?>
<!DOCTYPE svg PUBLIC "-//W3C//DTD SVG 20010904//EN"
 "http://www.w3.org/TR/2001/REC-SVG-20010904/DTD/svg10.dtd">
<svg version="1.0" xmlns="http://www.w3.org/2000/svg"
 width="1632.000000pt" height="1632.000000pt" viewBox="0 0 1632.000000 1632.000000"
 preserveAspectRatio="xMidYMid meet">
<metadata>
Created by potrace 1.11, written by Peter Selinger 2001-2013
</metadata>
<g transform="translate(0.000000,1632.000000) scale(0.100000,-0.100000)"
fill="#000000" stroke="none">
<path d="M43 11492 l-43 -3 0 -3322 0 -3322 1518 1 c834 0 1537 4 1562 9 25 4
56 9 70 10 97 10 289 57 410 100 160 56 452 216 543 296 15 13 47 40 73 59
119 91 286 278 395 440 58 86 195 340 183 340 -2 0 4 17 15 38 17 33 57 151
66 194 2 9 8 25 14 36 6 11 8 22 5 24 -2 3 0 16 5 30 15 39 32 145 47 283 13
118 7 409 -10 486 -3 13 -8 40 -11 59 -2 19 -7 46 -10 60 -3 14 -8 36 -11 50
-38 195 -164 487 -290 675 -37 55 -74 106 -81 113 -10 10 -10 18 -1 35 6 12
14 24 17 27 14 11 61 79 61 88 0 5 9 17 20 27 11 10 20 24 20 31 0 7 6 19 13
26 11 11 142 263 145 278 1 7 6 22 36 108 14 40 28 82 30 95 3 12 15 58 27
102 11 44 21 87 21 95 0 8 4 33 9 55 21 101 30 380 16 505 -3 30 -9 80 -12
110 -6 56 -12 93 -15 98 -2 1 -3 5 -4 10 -3 12 -18 86 -22 109 -6 31 -73 230
-91 273 -91 205 -176 348 -313 525 -21 27 -239 245 -275 275 -85 70 -222 164
-305 208 -25 14 -67 37 -95 51 -92 50 -338 139 -427 155 -15 2 -31 7 -36 10
-4 2 -28 7 -52 11 -25 3 -56 8 -70 10 -32 6 -99 14 -173 21 -58 6 -2897 12
-2974 6z"/>
<path d="M5658 11489 c-6 -4 -9 -1153 -9 -3285 0 -1803 0 -3297 1 -3319 l0
-40 825 0 c454 0 826 2 826 5 1 3 2 746 3 1652 0 905 4 1649 8 1653 3 3 9 -7
13 -24 4 -17 11 -31 16 -31 5 0 9 -5 9 -11 0 -6 142 -296 316 -645 173 -348
315 -636 314 -640 -1 -4 2 -10 7 -13 10 -7 426 -840 429 -859 1 -7 7 -18 12
-25 11 -13 172 -333 172 -341 0 -3 14 -29 31 -58 17 -29 32 -55 32 -58 1 -7
46 -102 57 -120 5 -8 36 -69 68 -135 32 -66 69 -140 82 -165 13 -25 25 -47 25
-50 3 -18 58 -121 68 -127 7 -5 382 -8 833 -8 l821 -1 0 3323 0 3323 -21 1
c-28 1 -1549 1 -1600 0 -32 -1 -38 -4 -33 -20 2 -10 0 -26 -5 -35 -5 -9 -5
-16 -1 -16 4 0 8 -20 8 -45 0 -25 -4 -45 -8 -45 -5 0 -5 -5 -1 -12 10 -16 11
-98 2 -125 -4 -13 -4 -23 0 -23 9 0 7 -84 -2 -99 -4 -6 -4 -11 1 -11 4 0 8
-20 8 -45 0 -25 -4 -45 -8 -45 -5 0 -5 -5 -2 -11 11 -16 12 -69 3 -75 -5 -3
-5 -11 -1 -17 10 -16 10 -48 0 -69 -4 -10 -4 -18 1 -18 4 0 7 -15 5 -32 -4
-38 -4 -61 0 -103 1 -16 -1 -38 -6 -47 -4 -10 -4 -18 0 -18 4 0 8 -20 8 -45 0
-25 -4 -45 -8 -45 -4 0 -4 -8 0 -17 10 -22 10 -54 0 -70 -4 -6 -4 -14 1 -17 9
-6 8 -59 -3 -75 -3 -6 -2 -11 2 -11 5 0 8 -15 6 -32 -4 -38 -4 -61 0 -103 1
-16 -1 -38 -6 -47 -4 -10 -4 -18 0 -18 4 0 8 -20 8 -45 0 -25 -4 -45 -8 -45
-4 0 -4 -8 0 -17 10 -22 10 -54 0 -70 -4 -6 -4 -14 1 -17 9 -6 8 -59 -3 -75
-3 -6 -2 -11 2 -11 5 0 8 -15 6 -32 -4 -38 -4 -61 0 -103 1 -16 -1 -38 -6 -47
-4 -10 -4 -18 0 -18 4 0 8 -20 8 -45 0 -25 -4 -45 -8 -45 -4 0 -4 -8 0 -17 10
-22 10 -54 0 -70 -4 -6 -4 -14 1 -17 9 -6 8 -59 -3 -75 -3 -6 -2 -11 2 -11 5
0 8 -15 6 -32 -4 -38 -4 -61 0 -103 1 -16 -1 -38 -6 -47 -4 -10 -4 -18 0 -18
4 0 8 -20 8 -45 0 -25 -4 -45 -8 -45 -4 0 -4 -8 0 -17 10 -22 10 -54 0 -70 -4
-6 -4 -14 1 -17 9 -6 8 -59 -3 -75 -3 -6 -3 -11 2 -11 4 0 8 -20 8 -45 0 -25
-4 -45 -8 -45 -4 0 -4 -8 1 -17 8 -19 7 -131 -2 -140 -3 -3 -1 -14 4 -24 7
-12 7 -20 0 -24 -6 -4 -7 -12 -3 -18 10 -16 10 -48 0 -69 -4 -10 -4 -18 0 -18
4 0 8 -20 8 -45 0 -25 -4 -45 -8 -45 -5 0 -5 -5 -1 -11 9 -14 11 -189 3 -183
-4 2 -12 18 -19 36 -7 18 -19 40 -26 48 -7 8 -13 20 -14 25 -2 14 -297 604
-309 618 -5 7 -9 16 -10 20 0 10 -1268 2557 -1277 2566 -7 7 -1635 7 -1646 0z"/>
<path d="M11347 11492 c-16 -3 -17 -64 -17 -833 l0 -829 818 -1 c449 -1 822
-1 827 0 8 1 11 -772 10 -2489 0 -1653 3 -2490 10 -2491 44 -6 1632 -4 1640 2
7 5 10 847 9 2493 l0 2486 828 0 828 0 0 830 c0 457 -3 830 -7 831 -28 2
-4933 3 -4946 1z"/>
</g>
</svg>
