<?xml version="1.0" encoding="UTF-8"?>
<svg width="22px" height="22px" viewBox="0 0 22 22" version="1.1" xmlns="http://www.w3.org/2000/svg" xmlns:xlink="http://www.w3.org/1999/xlink">
    <!-- Generator: Sketch 44.1 (41455) - http://www.bohemiancoding.com/sketch -->
    <title>Combined Shape</title>
    <desc>Created with Sketch.</desc>
    <defs></defs>
    <g id="Symbols" stroke="none" stroke-width="1" fill="none" fill-rule="evenodd">
        <g id="Instagram-Icon-Orange" transform="translate(-7.000000, -7.000000)" fill="#E1E4E7">
            <g id="Instagram">
                <path d="M17.9966807,7.41844538 C20.8713445,7.41844538 21.2318067,7.43063025 22.3607983,7.48214286 C23.487437,7.53352941 24.2568908,7.71247899 24.9301681,7.97415966 C25.6262185,8.24462185 26.2165126,8.60655462 26.805,9.195 C27.3934454,9.78348739 27.7553782,10.3737815 28.0258824,11.0698319 C28.287521,11.7431092 28.4664706,12.512563 28.5178571,13.6392017 C28.5693697,14.7681933 28.5815546,15.1286555 28.5815546,18.0033613 C28.5815546,20.8780252 28.5693697,21.2384874 28.5178571,22.367479 C28.4664706,23.4941176 28.287521,24.2635714 28.0258824,24.9368487 C27.7553782,25.6328992 27.3934454,26.2231933 26.805,26.8116807 C26.2165126,27.4001261 25.6262185,27.7620588 24.9301681,28.032563 C24.2568908,28.2942017 23.487437,28.4731513 22.3607983,28.5245378 C21.2318067,28.5760504 20.8713445,28.5882353 17.9966807,28.5882353 C15.1219748,28.5882353 14.7615126,28.5760504 13.632521,28.5245378 C12.5058824,28.4731513 11.7364286,28.2942017 11.0631513,28.032563 C10.3671008,27.7620588 9.77680672,27.4001261 9.18831933,26.8116807 C8.59987395,26.2231933 8.23794118,25.6328992 7.96747899,24.9368487 C7.70579832,24.2635714 7.52684874,23.4941176 7.47546218,22.367479 C7.42394958,21.2384874 7.41176471,20.8780252 7.41176471,18.0033613 C7.41176471,15.1286555 7.42394958,14.7681933 7.47546218,13.6392017 C7.52684874,12.512563 7.70579832,11.7431092 7.96747899,11.0698319 C8.23794118,10.3737815 8.59987395,9.78348739 9.18831933,9.195 C9.77680672,8.60655462 10.3671008,8.24462185 11.0631513,7.97415966 C11.7364286,7.71247899 12.5058824,7.53352941 13.632521,7.48214286 C14.7615126,7.43063025 15.1219748,7.41844538 17.9966807,7.41844538 Z M17.9966807,9.32563025 C15.1703782,9.32563025 14.8355882,9.33642857 13.7194538,9.38735294 C12.687437,9.43441176 12.1269748,9.60684874 11.7539916,9.75180672 C11.259916,9.94382353 10.9073109,10.1731933 10.5369328,10.5436134 C10.1665126,10.9139916 9.93714286,11.2665966 9.74512605,11.7606723 C9.60016807,12.1336555 9.42773109,12.6941176 9.38067227,13.7261345 C9.3297479,14.8422689 9.31894958,15.1770588 9.31894958,18.0033613 C9.31894958,20.8296218 9.3297479,21.1644118 9.38067227,22.2805462 C9.42773109,23.312563 9.60016807,23.8730252 9.74512605,24.2460084 C9.93714286,24.740084 10.1665546,25.0926891 10.5369328,25.4630672 C10.9073109,25.8334874 11.259916,26.0628571 11.7539916,26.2548739 C12.1269748,26.3998319 12.687437,26.5722689 13.7194538,26.6193277 C14.8354622,26.6702521 15.1701681,26.6810504 17.9966807,26.6810504 C20.8231513,26.6810504 21.1578992,26.6702521 22.2738655,26.6193277 C23.3058824,26.5722689 23.8663445,26.3998319 24.2393277,26.2548739 C24.7334034,26.0628571 25.0860084,25.8334874 25.4563866,25.4630672 C25.8268067,25.0926891 26.0561765,24.740084 26.2481933,24.2460084 C26.3931513,23.8730252 26.5655882,23.312563 26.6126471,22.2805462 C26.6635714,21.1644118 26.6743697,20.8296218 26.6743697,18.0033613 C26.6743697,15.1770588 26.6635714,14.8422689 26.6126471,13.7261345 C26.5655882,12.6941176 26.3931513,12.1336555 26.2481933,11.7606723 C26.0561765,11.2665966 25.8268067,10.9139916 25.4563866,10.5436134 C25.0860084,10.1731933 24.7334034,9.94382353 24.2393277,9.75180672 C23.8663445,9.60684874 23.3058824,9.43441176 22.2738655,9.38735294 C21.1577311,9.33642857 20.8229412,9.32563025 17.9966807,9.32563025 Z M17.9966807,12.5678571 C20.9986134,12.5678571 23.4321429,15.0013866 23.4321429,18.0033613 C23.4321429,21.0052941 20.9986134,23.4388235 17.9966807,23.4388235 C14.9947059,23.4388235 12.5611765,21.0052941 12.5611765,18.0033613 C12.5611765,15.0013866 14.9947059,12.5678571 17.9966807,12.5678571 Z M17.9966807,21.5316387 C19.9452941,21.5316387 21.524958,19.9519748 21.524958,18.0033613 C21.524958,16.0547059 19.9452941,14.475042 17.9966807,14.475042 C16.0480252,14.475042 14.4683613,16.0547059 14.4683613,18.0033613 C14.4683613,19.9519748 16.0480252,21.5316387 17.9966807,21.5316387 Z M24.9171008,12.3531092 C24.9171008,13.0546218 24.3484034,13.6232773 23.6468908,13.6232773 C22.9454202,13.6232773 22.3767227,13.0546218 22.3767227,12.3531092 C22.3767227,11.6515966 22.9454202,11.0828992 23.6468908,11.0828992 C24.3484034,11.0828992 24.9171008,11.6515966 24.9171008,12.3531092 Z" id="Combined-Shape"></path>
            </g>
        </g>
    </g>
</svg>