<?xml version="1.0" encoding="UTF-8"?>
<svg width="22px" height="18px" viewBox="0 0 22 18" version="1.1" xmlns="http://www.w3.org/2000/svg" xmlns:xlink="http://www.w3.org/1999/xlink">
    <!-- Generator: Sketch 44.1 (41455) - http://www.bohemiancoding.com/sketch -->
    <title>Twitter Icon</title>
    <desc>Created with Sketch.</desc>
    <defs></defs>
    <g id="Symbols" stroke="none" stroke-width="1" fill="none" fill-rule="evenodd">
        <g id="Twitter-Icon-Orange" transform="translate(-7.000000, -9.000000)" fill="#E1E4E7">
            <g id="Twitter">
                <path d="M28.2268235,11.4753408 C28.1138824,11.4753408 27.3345882,11.7996623 27.1312941,11.8555798 C27.4023529,11.5424418 28.0235294,10.5918443 28.0235294,10.1892383 C28.0235294,9.99911878 27.8654118,9.83136628 27.6621176,9.83136628 C27.6056471,9.83136628 27.5378824,9.85373328 27.4814118,9.88728378 C26.7134118,10.3010733 25.9792941,10.6253948 25.1209412,10.8043308 C24.2738824,9.99911878 23.1218824,9.52941176 21.936,9.52941176 C19.4287059,9.52941176 17.3731765,11.5536253 17.3731765,14.0475459 C17.3731765,14.2264819 17.3844706,14.4166014 17.4183529,14.5955374 C14.9336471,14.3830509 12.5731765,13.3541689 10.7209412,11.7101943 C10.2691765,11.3075883 9.88517647,10.8714318 9.47858824,10.4240918 C9.38823529,10.3234403 9.30917647,10.2898898 9.17364706,10.2898898 C9.04941176,10.2898898 8.94776471,10.3793578 8.89129412,10.4688258 C8.48470588,11.0615513 8.27011765,12.0233324 8.27011765,12.7390764 C8.27011765,13.7791419 8.63152941,14.7968404 9.30917647,15.6020525 C9.09458824,15.5349515 8.76705882,15.322465 8.57505882,15.322465 C8.33788235,15.322465 8.13458824,15.4902175 8.13458824,15.725071 C8.13458824,17.290761 9.00423529,18.7446161 10.3369412,19.5610116 C10.2352941,19.5498281 10.1449412,19.5162776 10.0432941,19.5162776 C9.85129412,19.5162776 9.69317647,19.6840301 9.69317647,19.8629661 C9.69317647,19.9077001 9.70447059,19.9412506 9.71576471,19.9859846 C10.2127059,21.4957572 11.4550588,22.6364742 13.0136471,22.9943462 C11.7374118,23.7771913 10.2691765,24.1797973 8.77835294,24.1797973 C8.43952941,24.1797973 8.10070588,24.1238798 7.77317647,24.1238798 C7.56988235,24.1238798 7.41176471,24.2916323 7.41176471,24.4817518 C7.41176471,24.6047703 7.47952941,24.7054218 7.58117647,24.7837063 C7.87482353,24.9961928 8.23623529,25.1751288 8.56376471,25.3428813 C10.3030588,26.2375613 12.2456471,26.7072684 14.2108235,26.7072684 C19.1350588,26.7072684 23.3477647,24.0903293 25.3807059,19.6392961 C26.1148235,18.0400556 26.544,16.284246 26.5101176,14.5284364 L26.5101176,14.1593809 C27.2781176,13.5890224 28.0235294,12.8509114 28.5317647,12.0345159 C28.5656471,11.9785983 28.5882353,11.9114973 28.5882353,11.8332128 C28.5882353,11.6430933 28.4301176,11.4753408 28.2268235,11.4753408 Z" id="Twitter-Icon"></path>
            </g>
        </g>
    </g>
</svg>